<?xml version="1.0" encoding="UTF-8"?>
<svg width="178px" height="51px" viewBox="0 0 178 51" version="1.1" xmlns="http://www.w3.org/2000/svg" xmlns:xlink="http://www.w3.org/1999/xlink">
    <!-- Generator: Sketch 51.2 (57519) - http://www.bohemiancoding.com/sketch -->
    <title>logo/edenor blanco2@2x</title>
    <desc>Created with Sketch.</desc>
    <defs></defs>
    <g id="simbols" stroke="none" stroke-width="1" fill="none" fill-rule="evenodd">
        <g id="heaer" transform="translate(-155.000000, -47.000000)" fill="#FFFFFF">
            <g id="logo/edenor-blanco2" transform="translate(155.000000, 47.000000)">
                <path d="M13.1523224,20.5062 C8.58590886,20.5062 5.25122532,21.91395 3.14827173,24.72795 C1.04982447,27.54645 -0.00015021097,31.30695 -0.00015021097,36.0222 C-0.00015021097,38.41995 0.283748523,40.53045 0.855301266,42.3567 C1.42384979,44.19195 2.15462616,45.62145 3.04612827,46.6527 C3.18957975,46.82295 3.33903966,46.97445 3.49601013,47.12445 L3.47873586,47.1297 C5.75443207,49.61145 9.21228861,50.8482 13.8643224,50.8482 C15.8005418,50.8482 17.8696979,50.5077 20.0740439,49.8207 C22.2738835,49.1352 23.375681,48.2112 23.375681,47.05245 C23.375681,46.4502 23.0519764,45.6342 22.4000608,44.5947 C21.7473941,43.56045 21.157065,43.0377 20.6290734,43.0377 C20.5937738,43.0377 19.8524827,43.3137 18.4089553,43.85595 C16.9631747,44.4042 14.7858667,44.70795 13.1966346,44.70795 C11.7433435,44.70795 10.367411,44.1432 9.3655038,43.49745 C8.03087932,42.6342 7.27306498,40.9257 7.08004388,38.3787 C7.02596793,36.39945 7.05901435,36.4092 7.10933502,33.49395 C7.11083713,33.4662 7.1130903,33.4422 7.11534346,33.4197 C7.15439831,32.7777 7.18969789,32.37195 7.18969789,32.37195 C7.45031392,30.3867 8.00534346,28.97295 8.84652489,28.00545 C9.83716624,26.87445 11.2115966,26.3097 12.9795797,26.3097 C14.7415544,26.3097 16.1302549,27.00195 17.1374194,28.3947 C18.1423308,29.77995 18.7431747,31.5897 18.9339426,33.60645 C17.6916979,33.68745 16.6830312,33.75345 16.3165165,33.77745 C14.8714869,33.8682 13.4287105,33.96795 11.9190903,34.0587 C11.6637316,34.07595 11.4091241,34.1052 11.1590228,34.1307 C11.0441114,34.1442 10.9344574,34.15695 10.8217992,34.1682 C10.1728878,34.2312 9.6681789,34.75545 9.63137722,35.4057 C9.58631392,36.19395 10.0932759,36.8637 10.860854,37.04595 C10.9292,37.0647 10.9952928,37.07145 11.0696473,37.0752 C12.3381789,37.1697 13.6495207,37.26195 14.9713772,37.34895 C16.5996641,37.4622 21.8840861,37.57845 23.4935966,37.6902 L26.1898835,33.13845 C26.168103,29.22645 25.1369046,27.31695 22.950584,24.61395 C20.732719,21.8697 17.4693857,20.5062 13.1523224,20.5062" id="Fill-1"></path>
                <path d="M69.0543865,20.5062 C64.4872219,20.5062 61.1525384,21.91395 59.0540911,24.72795 C56.9541418,27.54645 55.903416,31.30695 55.903416,36.0222 C55.903416,38.41995 56.1888169,40.53045 56.7581165,42.3567 C57.3311713,44.19195 58.0604456,45.62145 58.9481924,46.6527 C59.0946481,46.82295 59.2426059,46.97445 59.3973232,47.12445 L59.3823021,47.1297 C61.6557451,49.61145 65.117357,50.8482 69.7701418,50.8482 C71.7056101,50.8482 73.7755173,50.5077 75.9821165,49.8207 C78.1789519,49.1352 79.2799983,48.2112 79.2799983,47.05245 C79.2799983,46.4502 78.9555426,45.6342 78.3013738,44.5947 C77.6509603,43.56045 77.0628844,43.0377 76.5303865,43.0377 C76.4973401,43.0377 75.7537958,43.3137 74.3110194,43.85595 C72.8659899,44.4042 70.6894329,44.70795 69.1039561,44.70795 C67.6469097,44.70795 66.2687241,44.1432 65.26907,43.49745 C63.9382008,42.6342 63.1758802,40.9257 62.9828591,38.3787 C62.9332895,36.39945 62.9648338,36.4092 63.0129013,33.49395 C63.0166565,33.4662 63.0166565,33.4422 63.0189097,33.4197 C63.0557114,32.7777 63.091011,32.37195 63.091011,32.37195 C63.3576354,30.3867 63.9066565,28.97295 64.7500911,28.00545 C65.7407325,26.87445 67.1159139,26.3097 68.8793907,26.3097 C70.6488759,26.3097 72.0338211,27.00195 73.0424878,28.3947 C74.0473992,29.77995 74.6467409,31.5897 74.8375089,33.60645 C73.5952641,33.68745 72.5865975,33.75345 72.2208338,33.77745 C70.7765553,33.8682 69.3337789,33.96795 67.8226565,34.0587 C67.5688,34.07595 67.3149435,34.1052 67.062589,34.1307 C66.9514329,34.1442 66.8357705,34.15695 66.7253654,34.1682 C66.0779561,34.2312 65.5717451,34.75545 65.5349435,35.4057 C65.4921333,36.19395 65.994589,36.8637 66.761416,37.04595 C66.8327662,37.0647 66.9011122,37.07145 66.9732135,37.0752 C68.2417451,37.1697 69.554589,37.26195 70.8749435,37.34895 C72.5047325,37.4622 77.7853992,37.57845 79.399416,37.6902 L82.0972051,33.13845 C82.069416,29.22645 81.0427241,27.31695 78.8556523,24.61395 C76.6385384,21.8697 73.3706987,20.5062 69.0543865,20.5062" id="Fill-4"></path>
                <path d="M97.665746,20.5062 C92.955881,20.5062 88.4187586,21.58095 84.0739063,23.7417 L84.0739063,39.83445 L84.0739063,50.9114625 L87.1352059,50.9112 C87.1352059,50.9112 91.2051722,51.0147 91.2051722,47.1117 L91.2051722,43.17495 L91.2051722,39.83445 L91.2051722,27.2982 C93.1383873,26.95395 94.9739654,26.78145 96.7111553,26.78145 C98.2553241,26.78145 99.5216025,26.92395 100.510742,27.2097 C101.493122,27.50595 102.202117,27.93945 102.633223,28.5132 C103.068835,29.0982 103.35724,29.6487 103.5067,30.1797 C103.647898,30.7107 103.723754,31.36995 103.723754,32.1612 L103.723754,39.83445 L103.723754,50.9112 L106.777543,50.9112 C106.777543,50.9112 110.849763,51.0147 110.849763,47.1117 L110.849763,45.10995 L110.849763,39.83445 L110.849763,32.7687 C110.849763,28.89495 109.683375,25.8762 107.358109,23.72445 C105.029088,21.58095 101.801054,20.5062 97.665746,20.5062" id="Fill-6"></path>
                <path d="M132.12955,43.2267 C131.00447,44.51145 129.278546,45.1542 126.942014,45.1542 C124.600976,45.1542 122.869795,44.51145 121.738706,43.2267 C120.611373,41.94495 120.045078,39.4677 120.045078,35.79195 C120.045078,32.11995 120.611373,29.6352 121.738706,28.3422 C122.869795,27.04845 124.600976,26.39895 126.942014,26.39895 C129.278546,26.39895 131.00447,27.04845 132.12955,28.3422 C133.244116,29.6352 133.810411,32.11995 133.810411,35.79195 C133.810411,39.4677 133.244116,41.94495 132.12955,43.2267 M126.922487,20.5602 C122.416909,20.5602 118.950791,21.86745 116.5369,24.4917 C114.120757,27.1152 112.915314,30.87795 112.915314,35.77545 C112.915314,40.67895 114.120757,44.44545 116.5369,47.0637 C118.950791,49.68945 122.416909,50.9997 126.922487,50.9997 C131.432571,50.9997 134.896436,49.68945 137.316335,47.0637 C139.727221,44.44545 140.934166,40.67895 140.934166,35.77545 C140.934166,30.87795 139.727221,27.1152 137.316335,24.4917 C134.896436,21.86745 131.432571,20.5602 126.922487,20.5602" id="Fill-8"></path>
                <path d="M157.641231,20.5062 C155.110176,20.5392 152.638455,20.84745 150.074354,21.43995 C147.501991,22.0137 145.79259,22.46595 144.9454,22.78245 C144.092202,23.0952 143.422261,23.36895 142.940835,23.59845 L142.940835,39.83445 L142.940835,50.9114625 L145.998379,50.9112 C145.998379,50.9112 150.074354,51.0147 150.074354,47.1117 L150.074354,44.70045 L150.074354,39.83445 L150.074354,27.5907 C152.193079,26.97645 154.741408,26.6502 157.720843,26.6097 L157.641231,20.5062 Z" id="Fill-10"></path>
                <path d="M46.5389637,41.700975 C46.5389637,43.830975 44.7401873,44.889225 41.1501451,44.889225 C38.8902211,44.889225 37.3047443,44.121225 36.3959679,42.567975 C35.4894447,41.022975 35.0358076,38.508225 35.0358076,35.023725 C35.0358076,31.694475 35.6156219,29.370225 36.7744996,28.044225 C37.9296219,26.718975 39.6224996,26.058225 41.8418667,26.058225 C43.5813097,26.076225 45.1502633,26.237475 46.5389637,26.550225 L46.5389637,41.700975 Z M49.5912506,9.592725 L46.5389637,9.592725 L46.5389637,20.961975 C44.8408287,20.654475 43.1975207,20.505975 41.6097907,20.505975 C37.1875797,20.505975 33.8003224,21.783975 31.4450143,24.339225 C29.0882042,26.901975 27.9090481,30.587475 27.9090481,35.403225 C27.9090481,38.051475 28.2447696,40.382475 28.9222211,42.402975 C29.5944152,44.424975 30.4198245,45.955725 31.385681,47.000475 C32.3485333,48.041475 33.4826262,48.892725 34.7909637,49.549725 C36.0932928,50.207475 37.2341451,50.609475 38.2112675,50.768475 C39.1846346,50.922225 40.162508,51.000225 41.1501451,51.000225 C45.3823392,51.000225 48.5232506,50.019225 50.5811409,48.057975 C52.6397823,46.096725 53.6664743,43.752225 53.6664743,41.030475 L53.6664743,24.539475 L53.6664743,13.977225 L53.6664743,13.390725 C53.6664743,9.485475 49.5912506,9.592725 49.5912506,9.592725 Z" id="Fill-12"></path>
                <path d="M175.552613,12.8904 C174.433541,17.04315 170.643718,20.0949 166.133634,20.0949 C164.726157,20.0949 163.391532,19.7964 162.181583,19.2594 C162.747878,22.97565 165.950376,25.8264 169.829575,25.8264 C174.107583,25.8264 177.574452,22.36215 177.574452,18.09015 C177.574452,16.0824 176.805372,14.26365 175.552613,12.8904" id="Fill-15" opacity="0.5"></path>
                <path d="M169.8295,10.3539 C172.099938,10.3539 174.136799,11.3334 175.552538,12.8904 C175.770343,12.0819 175.886757,11.2329 175.886757,10.35615 C175.886757,4.9734 171.522377,0.6144 166.133559,0.6144 C160.74474,0.6144 156.38036,4.9734 156.38036,10.35615 C156.38036,14.32965 158.763457,17.74515 162.181508,19.2594 C162.123677,18.87765 162.082369,18.4884 162.082369,18.0894 C162.082369,13.81815 165.551491,10.3539 169.8295,10.3539" id="Fill-18" opacity="0.5"></path>
                <path d="M175.552613,12.8904 C174.136123,11.3334 172.100014,10.3539 169.829575,10.3539 C165.551566,10.3539 162.081693,13.8189 162.081693,18.09015 C162.081693,18.4884 162.123752,18.87765 162.181583,19.2594 C163.391532,19.7964 164.726157,20.0949 166.133634,20.0949 C170.643718,20.0949 174.433541,17.04315 175.552613,12.8904" id="Fill-20"></path>
            </g>
        </g>
    </g>
</svg>